<svg xmlns="http://www.w3.org/2000/svg" xmlns:xlink="http://www.w3.org/1999/xlink" width="621" height="390"><source><![CDATA[participant App
participant Context
participant Framebuffer
participant Texture
App->Context: glTexImage2D
Context->Texture: setImage
Texture-->Framebuffer: onSubjectStateChange
Note over Framebuffer: cache update
Framebuffer-->Context: onSubjectStateChange
Note over Context: cache update
]]></source><desc/><defs><marker id="markerArrowBlock" markerHeight="5" markerWidth="5" orient="auto" refX="5" refY="2.5" viewBox="0 0 5 5"><path d="M 0 0 L 5 2.5 L 0 5 z"/></marker><marker id="markerArrowOpen" markerHeight="16" markerWidth="4" orient="auto" refX="9.6" refY="8" viewBox="0 0 9.6 16"><path d="M 9.6,8 1.92,16 0,13.7 5.76,8 0,2.286 1.92,0 9.6,8 z"/></marker></defs><g class="actor"><rect width="46.953" height="38.844" x="10" y="20" fill="#fff" stroke="#000" style="stroke-width:2"/><text x="20.563" y="44.844" style="font-size:16px;font-family:&quot;Andale Mono&quot;,monospace"><tspan x="20">App</tspan></text></g><g class="actor"><rect width="46.953" height="38.844" x="10" y="331.906" fill="#fff" stroke="#000" style="stroke-width:2"/><text x="20.563" y="356.75" style="font-size:16px;font-family:&quot;Andale Mono&quot;,monospace"><tspan x="20">App</tspan></text></g><line x1="33.477" x2="33.477" y1="58.844" y2="331.906" fill="none" stroke="#000" style="stroke-width:2"/><g class="actor"><rect width="81.578" height="38.844" x="118.25" y="20" fill="#fff" stroke="#000" style="stroke-width:2"/><text x="128.25" y="44.844" style="font-size:16px;font-family:&quot;Andale Mono&quot;,monospace"><tspan x="128.25">Context</tspan></text></g><g class="actor"><rect width="81.578" height="38.844" x="118.25" y="331.906" fill="#fff" stroke="#000" style="stroke-width:2"/><text x="128.25" y="356.75" style="font-size:16px;font-family:&quot;Andale Mono&quot;,monospace"><tspan x="128.25">Context</tspan></text></g><line x1="159.039" x2="159.039" y1="58.844" y2="331.906" fill="none" stroke="#000" style="stroke-width:2"/><g class="actor"><rect width="116.766" height="38.844" x="296.594" y="20" fill="#fff" stroke="#000" style="stroke-width:2"/><text x="306.594" y="44.844" style="font-size:16px;font-family:&quot;Andale Mono&quot;,monospace"><tspan x="306.594">Framebuffer</tspan></text></g><g class="actor"><rect width="116.766" height="38.844" x="296.594" y="331.906" fill="#fff" stroke="#000" style="stroke-width:2"/><text x="306.594" y="356.75" style="font-size:16px;font-family:&quot;Andale Mono&quot;,monospace"><tspan x="306.594">Framebuffer</tspan></text></g><line x1="354.977" x2="354.977" y1="58.844" y2="331.906" fill="none" stroke="#000" style="stroke-width:2"/><g class="actor"><rect width="81.578" height="38.844" x="510.125" y="20" fill="#fff" stroke="#000" style="stroke-width:2"/><text x="520.125" y="44.844" style="font-size:16px;font-family:&quot;Andale Mono&quot;,monospace"><tspan x="520.125">Texture</tspan></text></g><g class="actor"><rect width="81.578" height="38.844" x="510.125" y="331.906" fill="#fff" stroke="#000" style="stroke-width:2"/><text x="520.125" y="356.75" style="font-size:16px;font-family:&quot;Andale Mono&quot;,monospace"><tspan x="520.125">Texture</tspan></text></g><line x1="550.914" x2="550.914" y1="58.844" y2="331.906" fill="none" stroke="#000" style="stroke-width:2"/><g class="signal"><text x="43.477" y="89.266" style="font-size:16px;font-family:&quot;Andale Mono&quot;,monospace"><tspan x="43.477">glTexImage2D</tspan></text><line x1="33.477" x2="159.039" y1="97.688" y2="97.688" fill="none" stroke="#000" style="stroke-width:2;marker-end:url(#markerArrowBlock)"/></g><g class="signal"><text x="319.789" y="128.109" style="font-size:16px;font-family:&quot;Andale Mono&quot;,monospace"><tspan x="319.789">setImage</tspan></text><line x1="159.039" x2="550.914" y1="136.531" y2="136.531" fill="none" stroke="#000" style="stroke-width:2;marker-end:url(#markerArrowBlock)"/></g><g class="signal"><text x="364.977" y="166.953" style="font-size:16px;font-family:&quot;Andale Mono&quot;,monospace"><tspan x="364.977">onSubjectStateChange</tspan></text><line x1="550.914" x2="354.977" y1="175.375" y2="175.375" fill="none" stroke="#000" style="stroke-width:2;stroke-dasharray:6,2;marker-end:url(#markerArrowBlock)"/></g><g class="note"><rect width="115.563" height="28.844" x="297.195" y="195.375" fill="#fff" stroke="#000" style="stroke-width:2"/><text x="302.195" y="215.219" style="font-size:16px;font-family:&quot;Andale Mono&quot;,monospace"><tspan x="302.195">cache update</tspan></text></g><g class="signal"><text x="169.039" y="254.641" style="font-size:16px;font-family:&quot;Andale Mono&quot;,monospace"><tspan x="169.039">onSubjectStateChange</tspan></text><line x1="354.977" x2="159.039" y1="263.063" y2="263.063" fill="none" stroke="#000" style="stroke-width:2;stroke-dasharray:6,2;marker-end:url(#markerArrowBlock)"/></g><g class="note"><rect width="115.563" height="28.844" x="101.258" y="283.063" fill="#fff" stroke="#000" style="stroke-width:2"/><text x="106.258" y="302.906" style="font-size:16px;font-family:&quot;Andale Mono&quot;,monospace"><tspan x="106.258">cache update</tspan></text></g></svg>